# xmcd
#
# Track frame offsets:
#	150
#	19075
#	35604
#	47962
#	61711
#	77439
#	97144
#	112883
#	130133
#	144426
#	160868
#	177089
#	193299
#	210754
#
# Disc length: 3002 seconds
#
# Revision: 1
# Processed by: cddbd v1.5.2PL0 Copyright (c) Steve Scherf et al.
# Submitted via: audiograbber 1.83.01
#
DISCID=b40bb80e
DTITLE=Various Artist - Hot Hits Country Volume 108
DYEAR=1900
DGENRE=
TTITLE0=Lonestar - I'm Already There
TTITLE1=Faith Hill - There You'll Be
TTITLE2=Toby Keith - I'm Just Talkin' About Tonight
TTITLE3=Keith Urban - Where The Blacktop Ends
TTITLE4=Trick Pony - One A Night Like This
TTITLE5=SheDaisy - Still Holdin Out For You
TTITLE6=Diamond Rio - Sweet Summer
TTITLE7=Blake Sheldon - Austin
TTITLE8=Mike Walker - Honey Do
TTITLE9=Lila McCann - Come A Little Closer
TTITLE10=Mary Chapin Carpenter - Simple Life
TTITLE11=Carolyn Dawn Johnson - Complicated
TTITLE12=Chely Wright - Never Love You Enough
TTITLE13=Alabama - Will You Mary Me
EXTD=
EXTT0=
EXTT1=
EXTT2=
EXTT3=
EXTT4=
EXTT5=
EXTT6=
EXTT7=
EXTT8=
EXTT9=
EXTT10=
EXTT11=
EXTT12=
EXTT13=
PLAYORDER=
